<?xml version="1.0" ?>
<!-- Uploaded to: SVG Repo, www.svgrepo.com, Generator: SVG Repo Mixer Tools -->
<svg fill="#000000" width="800px" height="800px" viewBox="0 0 32 32" enable-background="new 0 0 32 32" id="Layer_3" version="1.1" xml:space="preserve" xmlns="http://www.w3.org/2000/svg" xmlns:xlink="http://www.w3.org/1999/xlink">
<g>
<path d="M26,20v-8c0-0.552-0.447-1-1-1h-2.132l0.026-0.053c0.178-0.355,0.128-0.782-0.126-1.087l-2.5-3   c-0.093-0.112-0.207-0.194-0.33-0.254C19.969,6.407,20,6.207,20,6c0-2.206-1.794-4-4-4s-4,1.794-4,4   c0,0.207,0.031,0.407,0.061,0.605c-0.123,0.06-0.236,0.143-0.33,0.254l-2.5,3c-0.254,0.305-0.304,0.732-0.126,1.087L9.132,11H7   c-0.553,0-1,0.448-1,1v8c0,0.553,0.447,1,1,1h2.132l-0.026,0.053c-0.178,0.355-0.128,0.782,0.126,1.088l2.5,3   c0.093,0.111,0.208,0.192,0.33,0.252C12.031,25.592,12,25.792,12,26c0,2.206,1.794,4,4,4s4-1.794,4-4   c0-0.208-0.031-0.408-0.061-0.607c0.122-0.06,0.237-0.141,0.33-0.252l2.5-3c0.254-0.306,0.304-0.732,0.126-1.088L22.868,21H25   C25.553,21,26,20.553,26,20z M16,4c1.103,0,2,0.897,2,2s-0.897,2-2,2s-2-0.897-2-2S14.897,4,16,4z M12.935,8.54   C13.67,9.424,14.763,10,16,10s2.33-0.576,3.065-1.46l1.749,2.098L20.5,11.264l-0.105-0.211c-0.247-0.494-0.848-0.694-1.342-0.447   c-0.179,0.09-0.303,0.234-0.398,0.395h-5.31c-0.095-0.161-0.219-0.305-0.398-0.395c-0.493-0.247-1.094-0.047-1.342,0.447   L11.5,11.264l-0.313-0.626L12.935,8.54z M16,28c-1.103,0-2-0.897-2-2s0.897-2,2-2s2,0.897,2,2S17.103,28,16,28z M19.064,23.46   C18.33,22.576,17.237,22,16,22s-2.33,0.576-3.064,1.46l-1.749-2.098l0.313-0.626l0.105,0.211c0.248,0.494,0.849,0.692,1.342,0.447   c0.179-0.09,0.303-0.234,0.398-0.395h5.31c0.095,0.161,0.219,0.305,0.398,0.395c0.494,0.245,1.095,0.047,1.342-0.447l0.105-0.211   l0.313,0.626L19.064,23.46z M24,19h-2c-0.042,0-0.079,0.019-0.12,0.024l-0.486-0.971c-0.34-0.678-1.449-0.678-1.789,0l-0.486,0.971   C19.079,19.019,19.042,19,19,19h-6c-0.042,0-0.079,0.019-0.12,0.024l-0.486-0.971c-0.34-0.678-1.449-0.678-1.789,0l-0.486,0.971   C10.079,19.019,10.042,19,10,19H8v-6h2c0.042,0,0.079-0.019,0.12-0.024l0.486,0.971c0.17,0.339,0.516,0.553,0.895,0.553   s0.725-0.214,0.895-0.553l0.486-0.971C12.921,12.981,12.958,13,13,13h6c0.042,0,0.079-0.019,0.12-0.024l0.486,0.971   c0.17,0.339,0.516,0.553,0.895,0.553s0.725-0.214,0.895-0.553l0.486-0.971C21.921,12.981,21.958,13,22,13h2V19z"/>
</g>
</svg>