<?xml version="1.0" ?>
<!-- Uploaded to: SVG Repo, www.svgrepo.com, Generator: SVG Repo Mixer Tools -->
<svg fill="#000000" width="800px" height="800px" viewBox="0 0 32 32" enable-background="new 0 0 32 32" id="Layer_3" version="1.1" xml:space="preserve" xmlns="http://www.w3.org/2000/svg" xmlns:xlink="http://www.w3.org/1999/xlink">
<g>
<path d="M20,16c0,0.552,0.448,1,1,1h2c0.552,0,1-0.448,1-1s-0.448-1-1-1h-2C20.448,15,20,15.448,20,16z"/>
<path d="M6,16c0,0.552,0.448,1,1,1h2c0.552,0,1-0.448,1-1s-0.448-1-1-1H7C6.448,15,6,15.448,6,16z"/>
<path d="M11,17c0,1.083,0.809,2.574,1.5,3.392V21.5c0,1.379,1.122,2.5,2.5,2.5s2.5-1.121,2.5-2.5v-1.108   C18.191,19.574,19,18.083,19,17c0-2.21-1.757-3.942-4-3.942S11,14.79,11,17z M15.5,21.5c0,0.275-0.224,0.5-0.5,0.5   s-0.5-0.225-0.5-0.5V21h1V21.5z M15,15.058c1.122,0,2,0.853,2,1.942c0,0.432-0.488,1.437-0.936,2h-2.127   C13.488,18.437,13,17.432,13,17C13,15.911,13.878,15.058,15,15.058z"/>
<path d="M16,11V9c0-0.552-0.448-1-1-1s-1,0.448-1,1v2c0,0.552,0.448,1,1,1S16,11.552,16,11z"/>
<path d="M19.95,10.293l-1.414,1.414c-0.391,0.391-0.391,1.023,0,1.414c0.195,0.195,0.451,0.293,0.707,0.293   s0.512-0.098,0.707-0.293l1.414-1.414c0.391-0.391,0.391-1.023,0-1.414S20.34,9.902,19.95,10.293z"/>
<path d="M10.05,10.293c-0.391-0.391-1.023-0.391-1.414,0s-0.391,1.023,0,1.414l1.414,1.414c0.195,0.195,0.451,0.293,0.707,0.293   s0.512-0.098,0.707-0.293c0.391-0.391,0.391-1.023,0-1.414L10.05,10.293z"/>
<path d="M27,8h1c0.352,0,0.678-0.185,0.858-0.486c0.181-0.302,0.189-0.676,0.023-0.986l-2.146-4c-0.349-0.649-1.414-0.649-1.763,0   l-2.146,4c-0.166,0.31-0.157,0.684,0.023,0.986C23.03,7.815,23.356,8,23.708,8H25v10c0,5.514-4.486,10-10,10S5,23.514,5,18V7   c0-0.552-0.448-1-1-1S3,6.448,3,7v11c0,6.617,5.383,12,12,12s12-5.383,12-12V8z M25.854,5.115L26.329,6h-0.949L25.854,5.115z"/>
</g>
</svg>